<svg xmlns="http://www.w3.org/2000/svg" width="100" height="58" viewBox="0 0 100 58"><g><g><g><path fill="#fff" d="M100.002 29.167L86.588 42.581c-10.042 10.042-23.23 15.062-36.42 15.062-13.192 0-26.38-5.022-36.421-15.062L0 28.834l13.414-13.412c20.083-20.083 52.757-20.083 72.84 0zm-4.779 0L83.865 17.809C65.1-.955 34.568-.955 15.802 17.809L4.777 28.834l11.358 11.358c18.765 18.764 49.297 18.764 68.063 0z"/></g><g><path fill="#fff" d="M48.264 15.44c-6.52 0-11.824 5.304-11.824 11.824a1.69 1.69 0 0 0 3.378 0c0-4.657 3.79-8.446 8.446-8.446a1.69 1.69 0 0 0 0-3.378z"/></g><g><path fill="#fff" d="M71.909 28.95c0 12.108-9.851 21.959-21.96 21.959-12.108 0-21.959-9.851-21.959-21.96 0-12.108 9.851-21.959 21.96-21.959 12.11 0 21.959 9.851 21.959 21.96zm-3.379 0c0-10.245-8.336-18.582-18.58-18.582-10.246 0-18.582 8.337-18.582 18.581 0 10.245 8.337 18.581 18.582 18.581 10.246 0 18.58-8.336 18.58-18.58z"/></g></g></g></svg>