<svg xmlns="http://www.w3.org/2000/svg" width="357" height="234" viewBox="0 0 357 234"><g><g><g/><g><g><path fill="#00d5e4" d="M337.3 225.4H24.1c-4.2 0-7.6-3.4-7.6-7.6V7.6c0-4.2 3.4-7.6 7.6-7.6h313.2c4.2 0 7.6 3.4 7.6 7.6v210.1c.1 4.3-3.4 7.7-7.6 7.7z"/></g></g><g><g><path fill="#065090" d="M326.2 217.8h-291c-4.2 0-7.6-3.4-7.6-7.6V15.3c0-4.2 3.4-7.6 7.6-7.6h291c4.2 0 7.6 3.4 7.6 7.6v194.9c.1 4.1-3.4 7.6-7.6 7.6z"/></g></g><g><g><g><path fill="#fcfdfd" d="M115.6 28.9H75.4v4.5h40.2z"/></g></g><g><g><path fill="#fcfdfd" d="M101 38.9H75.4v4.5H101z"/></g></g><g><g><path fill="#fcfdfd" d="M218.5 38.9H115.4v4.5h103.1z"/></g></g><g><g><path fill="#ff6452" d="M282.5 38.9h-54v4.5h54z"/></g></g><g><g><path fill="#00d050" d="M150.5 48.9H85.4v4.5h65.1z"/></g></g><g><g><path fill="#fcfdfd" d="M267.5 48.9h-97v4.5h97z"/></g></g><g><g><path fill="#ff6452" d="M167 58.9H75.4v4.5H167z"/></g></g><g><g><path fill="#00d5e4" d="M240.5 58.9h-65.1v4.5h65.1z"/></g></g><g><g><path fill="#fcfdfd" d="M150.5 68.9H85.4v4.5h65.1z"/></g></g><g><g><path fill="#fcfdfd" d="M170.5 78.9H75.4v4.5h95.1z"/></g></g><g><g><path fill="#fcfdfd" d="M140.5 88.9H75.4v4.5h65.1z"/></g></g><g><g><path fill="#ff6452" d="M204 98.9H95.4v4.5H204z"/></g></g><g><g><path fill="#fcfdfd" d="M250.5 98.9h-35.1v4.5h35.1z"/></g></g><g><g><path fill="#fcfdfd" d="M300.5 98.9h-35.1v4.5h35.1z"/></g></g><g><g><path fill="#fcfdfd" d="M149.7 108.9h-44.3v4.5h44.3z"/></g></g><g><g><path fill="#ff6452" d="M164.5 118.9h-59.1v4.5h59.1z"/></g></g><g><g><path fill="#fcfdfd" d="M250.5 118.9h-65.1v4.5h65.1z"/></g></g><g><g><path fill="#ff6452" d="M292.5 118.9h-27.1v4.5h27.1z"/></g></g><g><g><path fill="#fcfdfd" d="M115.4 128.9h-40v4.5h40z"/></g></g><g><g><path fill="#fcfdfd" d="M140.5 138.9H75.4v4.5h65.1z"/></g></g><g><g><path fill="#fcfdfd" d="M223.5 148.9H105.4v4.5h118.1z"/></g></g><g><g><path fill="#00d5e4" d="M308.5 148.9h-73.1v4.5h73.1z"/></g></g><g><g><path fill="#fcfdfd" d="M145.5 158.9h-40.1v4.5h40.1z"/></g></g><g><g><path fill="#00d050" d="M195.5 158.9h-40.1v4.5h40.1z"/></g></g><g><g><path fill="#fcfdfd" d="M245.5 158.9h-40.1v4.5h40.1z"/></g></g><g><g><path fill="#fcfdfd" d="M140.5 168.9H75.4v4.5h65.1z"/></g></g><g><g><path fill="#00d050" d="M160.5 178.9H95.4v4.5h65.1z"/></g></g><g><g><path fill="#00d050" d="M238 178.9h-65.1v4.5H238z"/></g></g><g><g><path fill="#fcfdfd" d="M208 198.9h-36.5v4.5H208z"/></g></g><g><g><path fill="#fcfdfd" d="M192 188.9H95.4v4.5H192z"/></g></g><g><g><g><path fill="#5e94c1" d="M50.3 28.9h-4.5v4.5h4.5z"/></g></g><g><g><path fill="#5e94c1" d="M50.3 38.9h-4.5v4.5h4.5z"/></g></g><g><g><path fill="#5e94c1" d="M50.3 48.9h-4.5v4.5h4.5z"/></g></g><g><g><path fill="#5e94c1" d="M50.3 58.9h-4.5v4.5h4.5z"/></g></g><g><g><path fill="#5e94c1" d="M50.3 68.9h-4.5v4.5h4.5z"/></g></g><g><g><path fill="#5e94c1" d="M50.3 78.9h-4.5v4.5h4.5z"/></g></g><g><g><path fill="#5e94c1" d="M50.3 88.9h-4.5v4.5h4.5z"/></g></g><g><g><path fill="#5e94c1" d="M50.3 98.9h-4.5v4.5h4.5z"/></g></g><g><g><path fill="#5e94c1" d="M50.3 108.9h-4.5v4.5h4.5z"/></g></g><g><g><path fill="#5e94c1" d="M50.3 118.9h-4.5v4.5h4.5z"/></g></g><g><g><path fill="#5e94c1" d="M50.3 128.9h-4.5v4.5h4.5z"/></g></g><g><g><path fill="#5e94c1" d="M50.3 138.9h-4.5v4.5h4.5z"/></g></g><g><g><path fill="#5e94c1" d="M50.3 148.9h-4.5v4.5h4.5z"/></g></g><g><g><path fill="#5e94c1" d="M50.3 158.9h-4.5v4.5h4.5z"/></g></g><g><g><path fill="#5e94c1" d="M50.3 168.9h-4.5v4.5h4.5z"/></g></g><g><g><path fill="#5e94c1" d="M50.3 178.9h-4.5v4.5h4.5z"/></g></g><g><g><path fill="#5e94c1" d="M50.3 188.9h-4.5v4.5h4.5z"/></g></g><g><g><path fill="#5e94c1" d="M50.3 198.9h-4.5v4.5h4.5z"/></g></g></g><g><g><path fill="#fcfdfd" d="M143.7 198.9H95.4v4.5h48.3z"/></g></g><g><g><g><path fill="#fcfdfd" d="M284.7 203.3l-19-8.1v-3.3l19-8.1v3.5l-15.1 6.2 15.1 6.2z"/></g></g><g><g><path fill="#fcfdfd" d="M298.1 179l-8.3 28.7H287l8.3-28.7z"/></g></g><g><g><path fill="#fcfdfd" d="M319.3 195.2l-19 8.1v-3.5l15.1-6.2-15.1-6.2v-3.5l19 8.1z"/></g></g></g></g><g><g><path fill="#00bbd3" d="M337 233.7H20c-11 0-20-9-20-20h357c0 11.1-9 20-20 20z"/></g></g><g opacity=".1"><g opacity=".01"/><g opacity=".01"/><g opacity=".01"/></g><g opacity=".1"><g opacity=".01"/></g><g><g><path fill="#15d7e2" d="M354.3 223.7c1.7-2.9 2.7-6.4 2.7-10H0c0 3.6 1 7.1 2.7 10z"/></g></g></g></g></svg>